<svg width="34" height="34" viewBox="0 0 34 34" fill="none" xmlns="http://www.w3.org/2000/svg">
<g id="Logo" clip-path="url(#clip0_83_125)">
<path id="Rectangle 587" d="M0.697266 33.9329H12.2019C17.6572 33.9329 22.0797 29.5105 22.0797 24.0552H10.575C5.11968 24.0552 0.697266 28.4776 0.697266 33.9329Z" fill="#D2CCCC"/>
<path id="Rectangle 591" d="M1.21188 9.87774V24.4038C6.66721 24.4038 11.0896 19.9814 11.0896 14.5261V0C5.6343 0 1.21188 4.42241 1.21188 9.87774Z" fill="#A7A5A5"/>
<path id="Rectangle 587_2" d="M33.2357 0H21.731C16.2757 0 11.8533 4.42241 11.8533 9.87774H23.3579C28.8133 9.87774 33.2357 5.45532 33.2357 0Z" fill="#727272"/>
<path id="Rectangle 591_2" d="M33.2357 23.4741V8.948C27.7804 8.948 23.3579 13.3704 23.3579 18.8257V33.3518C28.8133 33.3518 33.2357 28.9294 33.2357 23.4741Z" fill="black"/>
</g>
<defs>
<clipPath id="clip0_83_125">
<rect width="33.9329" height="33.9329" fill="white"/>
</clipPath>
</defs>
</svg>
